<svg xmlns="http://www.w3.org/2000/svg" width="32" height="32" fill="none"><rect width="32" height="32" fill="#83B3D3" rx="4"/><path fill="#23A9E1" d="m4.25 8.18 11.68 13.78 11.63-13.7-23.3-.08Z"/><path fill="#fff" d="M13.13 13.35h6.29c-.47-.3-1.6-1.68-2.18-1.17-.04.04-1.79-2.07-2.91-1.05-.98.9-1.46-.11-2.55.58-1.3.87.73 1.34 1.35 1.64Zm9.7-1.28-3.56.04c1.42-1.64 2.04-1.46 3.57-.04Z"/><path fill="#491213" d="M26.4 9.3v-.86h.76l-.76.87ZM8.5 12.74c.05.03.88-.88 2.23-1.78a9.65 9.65 0 0 1 5.23-1.79c2.11 0 4.04.99 5.28 1.82 1.34.87 2.18 1.75 2.21 1.78l-.9 1.1c-1.64.21-2.8 1.41-4.4 1.16-.8-.15-.84-.58-1.06-1.06-.18-.36-.47-.29-.84-.43-.32-.15-.54-.4-1.23-.26-.58.15-.66 1.06-1.42 1.02-.4-.04-.44-.58-1.02-1.3-1.49-1.79-2.85-1.57-3.8.07l-.27-.33Zm-3.05-4.3v.7l-.58-.7h.58Zm19.6 0h1.17v1.1l-1.17 1.38V8.44Zm-1.49 4.15V8.44h1.28v2.69l-1.28 1.45Zm-.18-3.78v3.6c-.4-.4-.83-.76-1.3-1.1l1.3-2.5Zm-1.49-.1v2.46c-.18-.1-.33-.25-.54-.36-.26-.15-.51-.33-.8-.47l1.34-1.64Zm-1.6-.08v1.56l-1.13-.54 1.13-1.02Zm.22-.18h1.34l-1.34 1.67V8.44Zm1.56 0h1.31l-1.3 2.58V8.44Zm-3.2 0h1.42l-1.27 1.12c-.04 0-.07-.03-.11-.03l-.04-1.1Zm-.18.14v.87a5.76 5.76 0 0 0-1.13-.32l1.13-.55Zm-1.53 0v.47l-.8-.1.8-.37Zm-2.47 0 .8.37c-.29 0-.54.03-.8.1v-.47Zm-1.49 0 1.13.55c-.4.07-.77.18-1.13.32v-.87Zm1.3.44-1.2-.58h1.2v.58Zm1.28-.15-1.02-.47h1.02v.47Zm.26-.43h1.05l-1.05.47v-.47Zm1.34 0h1.17l-1.17.58v-.58Zm-4.5 1.12L11.6 8.44h1.42v1.09l-.15.03Zm-1.32-.94 1.13.98c-.4.15-.76.33-1.13.55V8.62ZM10 8.69l1.3 1.64c-.46.25-.9.54-1.3.87V8.7Zm-1.53.11 1.31 2.55c-.47.36-.9.72-1.3 1.16V8.8Zm1.35 2.18L8.5 8.4h1.3v2.58Zm1.56-.9L10.04 8.4h1.34v1.67Zm-4.58.65L5.64 9.35v-.91H6.8v2.29Zm.22-2.3h1.27v4.08l-1.27-1.53V8.44ZM4 8v5.3l12 14.52 12-14.37V8H4Z"/><path fill="#23A9E1" d="M15.05 24.73 16 23.2l.95 1.53-.95 1.52-.95-1.52Z"/><path fill="#DC6243" d="M17.9 19.13c-1.25-.73-.95-1.28.06-1.78.55-.26 1.75-1.24 2.22-.91l-2.29 2.69Zm-.85.9c-.72-.03-1.56-.14-2.29.04.44.11 1.53.44.51.7.37.5.95.47 1.31.03-.14-.07-.25-.18-.36-.25.4-.11.76-.33.83-.51Zm.44-.58c-.33-.29-.69-.29-.98 0-.44-.76-1.96-.5-2.7-.61.4.94 3.5 1.12 3.68.61Zm-2.47-.8c-.58-.18-2.47-.14-1.24-.65.4-.15 2.44.04 1.24.65Zm.73-1.09c-.19-.4.14-.87.61-.5.44.29-.21.72-.61.5Zm-1.06.04c-.84.25-1.93-.3-.58-.55.84-.18 1.7.19.58.55.04 0-.04 0 0 0Zm-.94-2.25c-.19.58-.55.69-.51 0 .03-.84.58-.62 1.16-.95.47-.25.73-1.24 1.56-.65.37.25.8.03.91.43 0-.03-1.05 2.44-.47 2.44-1.16 0-.65-1.38-.22-2.33-.43.22-1.13 1.56-.54 1.82-.3.4-1.24.94-1.71.54-.4-.36-.18-.83-.18-1.3Zm-1.46 1.01c-2.04 0-.65-3.12.04-2.94.8.25.69 2.98-.04 2.94Zm-2.25-2.98c-.95-.03-.55-.94.1-1.13.62-.18 1.9.4 2.33.8-.65.22-1.49.19-2.22.22-.07-.72-.25-.47-.21.11Z"/><path fill="#F49774" d="M17.02 17.38c-1.06-1.09 1.56-.98 2-1.38.29.1 2.54-1.96 3.09-1.82-.4.47-1.24 1.93-1.82 1.93-.47 0-.94-.07-1.3.25-.55.51-1.43.77-1.97 1.02Z"/><path fill="#F4B1A4" d="M17.35 16.07c-.59.33-1.13-.9-.11-.8.65.08 1.34-.07 1.96.04-.47.54-1.13.84-1.85.76Z"/><path fill="#fff" d="M9.5 15.6c.1.15.2.3.17.5 0 .15-.22.37-.07.45l.55-.66a7.3 7.3 0 0 1-1.28-1.53l-.76.4c.04.15.29 0 .44 0 .18 0 .32.15.47.26-.4.33-1.38 1.2-1.5 1.2-.03 0-.25-.15-.25 0 0 .07.22.25.26.29l.5.62c.15-.08-.03-.18.04-.3.04-.07 1.17-.98 1.42-1.23Zm-1.25-1.64c.11-.03.15.11.22 0l-.58-.69c-.07-.1-.18-.22-.18 0 .04.15-1.46 1.35-1.53 1.38-.1.04-.18-.1-.25.04l.5.62c.08.07.12.14.19.22.07.07.03-.15.03-.15-.03-.1.11-.22.22-.29a8.5 8.5 0 0 1 1.38-1.13Zm-2.07-.21c-.4.1-.87-.04-.98-.48-.15-.43.15-.87.47-1.12.33-.26.84-.22 1.02.18a.8.8 0 0 1-.04.58c-.03.1-.14.22 0 .29.22-.25.4-.5.62-.76-.25-.15-.36-.4-.54-.62-.22-.26-.48-.51-.84-.55-.69-.1-1.3.62-1.38 1.24-.04.33.07.65.29.94.18.22.44.4.58.66.07.04.66-.26.77-.3.07 0 .03-.03.03-.06 0 0-.18.07 0 0Zm9.27 8.58c-.25-.18-.94-1.1-1.09-1.28l-.07-.1-.07.03c-.04.04.03.15 0 .22-.18.3-1.35 1.16-1.42 1.24-.15.07-.3-.04-.36.07.18.22.65.84.72.84.11 0 .04-.19.04-.22.04-.08.62-.58.84-.77.07-.07.14.11.21.19.08.1.11.25.08.36-.04.07-.18.22-.08.29l.62-.73c.08-.07-.14 0-.1-.03-.08.03-.19.07-.26 0-.04 0-.26-.26-.22-.3.11-.07.22-.21.36-.25.22-.04.37.36.4.51.04.15.04.3-.03.4-.04.1-.11.18 0 .22l.5-.7c0 .04-.03.04-.07 0 .04.04-.03 0 0 0Zm-3.34-3.24c-.26 0-.51.11-.73.3a1.3 1.3 0 0 0-.18 1.74c.47.62 1.24.69 1.85.25.51-.43.59-1.2.19-1.74-.3-.37-.73-.55-1.13-.55Zm.44.51c.32-.04.54.3.4.65-.15.37-.51.73-.88.88-.43.18-.72-.18-.54-.62.14-.36.5-.73.87-.87.04 0 .07-.04.15-.04Zm-1.02-1.67c.1 0 .22.14.29 0l-.51-.62c-.15.07 0 .14-.04.22-.07.1-.62.18-.76.22.04-.15.22-.62.29-.66.15-.1.22.11.3-.04l-.66-.76c-.08-.07-.15-.25-.22-.14 0 0 0 .36-.04.4-.03.07-.22.87-.43 1.05a4 4 0 0 1-.66.5c-.1.05-.18-.14-.29 0l.58.7c.04.04.15.22.18.22.11.03 0-.22.04-.26.04-.1.58-.65.84-.69.32-.07.72-.18 1.09-.14.07 0-.08 0 0 0Zm8.8 2.43c.03.15.07.33.03.48-.03.21-.21.69-.5.54-.3-.14-.51-.4-.77-.62.18-.21.36-.4.7-.29.06.04.14 0 .06-.07-.1-.07-.72-.47-.76-.44-.07.08.11.22.04.37-.04.1-.15.18-.22.29-.18-.15-.44-.3-.26-.55.15-.14.3-.29.51-.32.15-.04.44.1.48-.04-.26-.11-.51-.26-.77-.36.04.18-.8 1.05-.98 1.27-.04.03-.14.14-.14.18 0 .1.14.04.14.04.11-.04 1.6 1.2 1.64 1.3.03.08-.04.15 0 .19 0 0 .03.03.07.03.1-.1 1.05-1.41 1.27-1.45l-.54-.87c-.15.07-.04.25 0 .32Zm-1.46 1.6c-.47-.32-1.3.3-1.45.37-.26.1-.44-.15-.3-.37.12-.18.33-.29.55-.29.08 0 .33.04.33 0 .04-.03.04-.03 0-.07-.22-.15-.4-.3-.62-.4-.03.25-.33.4-.47.58-.18.22-.36.47-.36.73 0 .25.14.5.4.62.25.14.54.03.8-.11.14-.11.29-.22.43-.3.22-.1.55 0 .47.3a.87.87 0 0 1-.58.54.6.6 0 0 1-.43-.03c-.11-.04-.22-.18-.3-.04l.84.58c.04-.18.11-.25.26-.36.18-.15.32-.33.47-.51.29-.33.4-.9-.04-1.24Zm6.4-10.21c0 .03 0 .03 0 0l-.32.36-.3.36c-.07.08-.1.11 0 .18.19-.1 1.28 1.75 1.2 2-.18.08-1.63-1.2-1.67-1.27 0-.03.07-.25-.03-.22-.04 0-.19.22-.22.26l-.22.25c.07.11.1 0 .22 0l.54.4c-.18 0-.62.04-.69.04-.22.04-.1-.15-.25-.22l-.55.66-.33.36v.04c.08.07.04.03.15 0 .1-.04 1.56 1.16 1.6 1.23.07.11-.04.22.1.3l.45-.52c.03-.03.03-.03 0-.03-.11-.08-.11.03-.26.03-.1-.03-1.05-.8-1.38-1.09l1.93-.07c.07 0 .25.22.25.3-.04.06-.1.14 0 .17.11-.14.22-.25.33-.4l.03-.07c.04 0 .04-.04.04-.07l.04-.04c.1-.1.43-.47.4-.5-.11-.12-.15.1-.3 0a4 4 0 0 1-.32-.52c-.07-.1.14-.22.22-.25.18-.11.76-.3.83.07 0 .07-.07.15-.03.18 0 0 .03.08.07.04l.76-.95-.07-.07c-.18.18-2-.54-2.1-.65-.04-.08-.04-.3-.12-.3Zm-.07.94c.3.11.55.22.84.36l-.22.11c-.07.04-.15.11-.22.19l-.4-.66Zm-2.4 2.8c-.4-.04-.8.15-1.1.47-.43.55-.4 1.35.15 1.79a1.3 1.3 0 0 0 1.79-.19c.43-.54.4-1.34-.15-1.78a1.48 1.48 0 0 0-.69-.29Zm-.5.58c.2 0 .46.15.6.26.3.18.8.62.55.98 0-.04.04-.04-.03.04-.3.29-.8.03-1.06-.19-.25-.18-.72-.61-.43-.98.1-.07.22-.1.36-.1Zm-1.14 1.57c-.43-.04-.87.18-1.2.58-.21.29-.47.54-.69.83.08.11.18-.03.3.04.1.07 1.48 1.2 1.48 1.27.04.11-.07.15.04.22.04.04 1.06-1.23 1.16-1.45.15-.4.04-.88-.29-1.17.04.04.08.04 0 0-.29-.21-.54-.32-.8-.32Zm-.4.58h.11c.51.14 1.24.76.77 1.3l-.15.15a5.7 5.7 0 0 1-1.45-1.16.89.89 0 0 1 .72-.3Z"/></svg>